<mxfile host="app.diagrams.net" modified="2020-03-24T02:27:03.694Z" agent="Mozilla/5.0 (Macintosh; Intel Mac OS X 10_14_6) AppleWebKit/537.36 (KHTML, like Gecko) Chrome/80.0.3987.149 Safari/537.36" etag="QUxo2tIlDitXBlFa2pkW" version="12.9.0" type="github" pages="3">
  <diagram id="oah8V0raFj00rVzEYC6E" name="Page-1">
    <mxGraphModel dx="1186" dy="661" grid="1" gridSize="10" guides="1" tooltips="1" connect="1" arrows="1" fold="1" page="1" pageScale="1" pageWidth="827" pageHeight="1169" math="0" shadow="0">
      <root>
        <mxCell id="0" />
        <mxCell id="1" parent="0" />
        <mxCell id="Tcv-U042ql_su6P7lc9l-156" value="" style="rounded=0;whiteSpace=wrap;html=1;shadow=0;align=center;" parent="1" vertex="1">
          <mxGeometry x="100" y="2620" width="320" height="670" as="geometry" />
        </mxCell>
        <mxCell id="Tcv-U042ql_su6P7lc9l-161" value="" style="rounded=0;whiteSpace=wrap;html=1;shadow=0;" parent="1" vertex="1">
          <mxGeometry x="270" y="3110" width="140" height="170" as="geometry" />
        </mxCell>
        <mxCell id="Tcv-U042ql_su6P7lc9l-157" value="" style="rounded=0;whiteSpace=wrap;html=1;shadow=0;" parent="1" vertex="1">
          <mxGeometry x="300" y="3140" width="280" height="130" as="geometry" />
        </mxCell>
        <mxCell id="Tcv-U042ql_su6P7lc9l-155" value="" style="rounded=0;whiteSpace=wrap;html=1;shadow=0;" parent="1" vertex="1">
          <mxGeometry x="130" y="2640" width="140" height="330" as="geometry" />
        </mxCell>
        <mxCell id="Tcv-U042ql_su6P7lc9l-7" style="rounded=0;orthogonalLoop=1;jettySize=auto;html=1;exitX=1;exitY=0.5;exitDx=0;exitDy=0;entryX=0.234;entryY=0.245;entryDx=0;entryDy=0;entryPerimeter=0;" parent="1" source="Tcv-U042ql_su6P7lc9l-5" target="Tcv-U042ql_su6P7lc9l-6" edge="1">
          <mxGeometry relative="1" as="geometry" />
        </mxCell>
        <mxCell id="Tcv-U042ql_su6P7lc9l-28" style="edgeStyle=orthogonalEdgeStyle;rounded=0;orthogonalLoop=1;jettySize=auto;html=1;exitX=1;exitY=0.25;exitDx=0;exitDy=0;entryX=0.075;entryY=0.589;entryDx=0;entryDy=0;entryPerimeter=0;" parent="1" source="Tcv-U042ql_su6P7lc9l-5" target="Tcv-U042ql_su6P7lc9l-26" edge="1">
          <mxGeometry relative="1" as="geometry" />
        </mxCell>
        <mxCell id="Tcv-U042ql_su6P7lc9l-5" value="体检机" style="rounded=0;whiteSpace=wrap;html=1;" parent="1" vertex="1">
          <mxGeometry x="30" y="90" width="100" height="87" as="geometry" />
        </mxCell>
        <mxCell id="Tcv-U042ql_su6P7lc9l-18" style="rounded=0;orthogonalLoop=1;jettySize=auto;html=1;exitX=0.88;exitY=0.25;exitDx=0;exitDy=0;exitPerimeter=0;entryX=0;entryY=0.5;entryDx=0;entryDy=0;" parent="1" source="Tcv-U042ql_su6P7lc9l-6" target="Tcv-U042ql_su6P7lc9l-16" edge="1">
          <mxGeometry relative="1" as="geometry" />
        </mxCell>
        <mxCell id="Tcv-U042ql_su6P7lc9l-33" style="edgeStyle=orthogonalEdgeStyle;rounded=0;orthogonalLoop=1;jettySize=auto;html=1;exitX=0.875;exitY=0.5;exitDx=0;exitDy=0;exitPerimeter=0;entryX=0;entryY=0.5;entryDx=0;entryDy=0;" parent="1" source="Tcv-U042ql_su6P7lc9l-6" target="Tcv-U042ql_su6P7lc9l-31" edge="1">
          <mxGeometry relative="1" as="geometry" />
        </mxCell>
        <mxCell id="Tcv-U042ql_su6P7lc9l-34" style="rounded=0;orthogonalLoop=1;jettySize=auto;html=1;exitX=0.8;exitY=0.8;exitDx=0;exitDy=0;exitPerimeter=0;" parent="1" source="Tcv-U042ql_su6P7lc9l-6" target="Tcv-U042ql_su6P7lc9l-17" edge="1">
          <mxGeometry relative="1" as="geometry" />
        </mxCell>
        <mxCell id="Tcv-U042ql_su6P7lc9l-6" value="云服务平台" style="ellipse;shape=cloud;whiteSpace=wrap;html=1;" parent="1" vertex="1">
          <mxGeometry x="183" y="230" width="351" height="255" as="geometry" />
        </mxCell>
        <mxCell id="Tcv-U042ql_su6P7lc9l-9" style="rounded=0;orthogonalLoop=1;jettySize=auto;html=1;entryX=0.13;entryY=0.77;entryDx=0;entryDy=0;entryPerimeter=0;exitX=1;exitY=0.5;exitDx=0;exitDy=0;" parent="1" source="Tcv-U042ql_su6P7lc9l-8" target="Tcv-U042ql_su6P7lc9l-6" edge="1">
          <mxGeometry relative="1" as="geometry" />
        </mxCell>
        <mxCell id="Tcv-U042ql_su6P7lc9l-8" value="医务端PC机" style="rounded=0;whiteSpace=wrap;html=1;" parent="1" vertex="1">
          <mxGeometry x="30" y="480" width="90" height="95" as="geometry" />
        </mxCell>
        <mxCell id="Tcv-U042ql_su6P7lc9l-12" style="edgeStyle=orthogonalEdgeStyle;rounded=0;orthogonalLoop=1;jettySize=auto;html=1;entryX=0.07;entryY=0.4;entryDx=0;entryDy=0;entryPerimeter=0;" parent="1" source="Tcv-U042ql_su6P7lc9l-10" target="Tcv-U042ql_su6P7lc9l-6" edge="1">
          <mxGeometry relative="1" as="geometry" />
        </mxCell>
        <mxCell id="Tcv-U042ql_su6P7lc9l-10" value="微信公众号" style="rounded=0;whiteSpace=wrap;html=1;" parent="1" vertex="1">
          <mxGeometry x="30" y="290" width="100" height="84" as="geometry" />
        </mxCell>
        <mxCell id="Tcv-U042ql_su6P7lc9l-13" value="体检单、照相单" style="text;html=1;align=center;verticalAlign=middle;resizable=0;points=[];autosize=1;rotation=0;" parent="1" vertex="1">
          <mxGeometry x="170" y="190" width="100" height="20" as="geometry" />
        </mxCell>
        <mxCell id="Tcv-U042ql_su6P7lc9l-16" value="三方支付公司" style="shape=process;whiteSpace=wrap;html=1;backgroundOutline=1;" parent="1" vertex="1">
          <mxGeometry x="590" y="155" width="170" height="90" as="geometry" />
        </mxCell>
        <mxCell id="Tcv-U042ql_su6P7lc9l-17" value="公安网上报" style="shape=process;whiteSpace=wrap;html=1;backgroundOutline=1;" parent="1" vertex="1">
          <mxGeometry x="600.5" y="485" width="165" height="100" as="geometry" />
        </mxCell>
        <mxCell id="Tcv-U042ql_su6P7lc9l-26" value="阿里云视频服务、对象存储" style="ellipse;shape=cloud;whiteSpace=wrap;html=1;" parent="1" vertex="1">
          <mxGeometry x="330" y="70" width="120" height="71" as="geometry" />
        </mxCell>
        <mxCell id="Tcv-U042ql_su6P7lc9l-31" value="短信服务商" style="shape=process;whiteSpace=wrap;html=1;backgroundOutline=1;" parent="1" vertex="1">
          <mxGeometry x="598" y="305.5" width="170" height="104" as="geometry" />
        </mxCell>
        <mxCell id="Tcv-U042ql_su6P7lc9l-56" style="rounded=0;orthogonalLoop=1;jettySize=auto;html=1;entryX=0;entryY=0.5;entryDx=0;entryDy=0;" parent="1" source="Tcv-U042ql_su6P7lc9l-35" target="Tcv-U042ql_su6P7lc9l-55" edge="1">
          <mxGeometry relative="1" as="geometry" />
        </mxCell>
        <mxCell id="Tcv-U042ql_su6P7lc9l-69" style="edgeStyle=none;rounded=0;orthogonalLoop=1;jettySize=auto;html=1;exitX=1;exitY=0.3333333333333333;exitDx=0;exitDy=0;exitPerimeter=0;entryX=0;entryY=0.5;entryDx=0;entryDy=0;" parent="1" source="Tcv-U042ql_su6P7lc9l-35" target="Tcv-U042ql_su6P7lc9l-64" edge="1">
          <mxGeometry relative="1" as="geometry" />
        </mxCell>
        <mxCell id="Tcv-U042ql_su6P7lc9l-83" style="edgeStyle=none;rounded=0;orthogonalLoop=1;jettySize=auto;html=1;entryX=0;entryY=0.5;entryDx=0;entryDy=0;" parent="1" source="Tcv-U042ql_su6P7lc9l-35" target="Tcv-U042ql_su6P7lc9l-82" edge="1">
          <mxGeometry relative="1" as="geometry">
            <mxPoint x="243" y="1290" as="targetPoint" />
            <mxPoint x="73" y="880" as="sourcePoint" />
          </mxGeometry>
        </mxCell>
        <mxCell id="Tcv-U042ql_su6P7lc9l-92" style="edgeStyle=none;rounded=0;orthogonalLoop=1;jettySize=auto;html=1;exitX=1;exitY=1;exitDx=0;exitDy=0;exitPerimeter=0;entryX=0;entryY=0.5;entryDx=0;entryDy=0;" parent="1" source="Tcv-U042ql_su6P7lc9l-35" target="Tcv-U042ql_su6P7lc9l-88" edge="1">
          <mxGeometry relative="1" as="geometry" />
        </mxCell>
        <mxCell id="Tcv-U042ql_su6P7lc9l-35" value="公司" style="shape=umlActor;verticalLabelPosition=bottom;labelBackgroundColor=#ffffff;verticalAlign=top;html=1;outlineConnect=0;" parent="1" vertex="1">
          <mxGeometry x="13" y="1290" width="30" height="60" as="geometry" />
        </mxCell>
        <mxCell id="Tcv-U042ql_su6P7lc9l-37" value="代理商" style="shape=umlActor;verticalLabelPosition=bottom;labelBackgroundColor=#ffffff;verticalAlign=top;html=1;outlineConnect=0;" parent="1" vertex="1">
          <mxGeometry x="93" y="1660" width="30" height="60" as="geometry" />
        </mxCell>
        <mxCell id="Tcv-U042ql_su6P7lc9l-42" value="医院" style="shape=umlActor;verticalLabelPosition=bottom;labelBackgroundColor=#ffffff;verticalAlign=top;html=1;outlineConnect=0;" parent="1" vertex="1">
          <mxGeometry x="337" y="1672" width="30" height="60" as="geometry" />
        </mxCell>
        <mxCell id="Tcv-U042ql_su6P7lc9l-43" value="驾校或车管所" style="shape=umlActor;verticalLabelPosition=bottom;labelBackgroundColor=#ffffff;verticalAlign=top;html=1;outlineConnect=0;" parent="1" vertex="1">
          <mxGeometry x="603" y="1672" width="30" height="60" as="geometry" />
        </mxCell>
        <mxCell id="Tcv-U042ql_su6P7lc9l-60" style="edgeStyle=none;rounded=0;orthogonalLoop=1;jettySize=auto;html=1;exitX=1;exitY=0;exitDx=0;exitDy=0;entryX=0;entryY=1;entryDx=0;entryDy=0;" parent="1" source="Tcv-U042ql_su6P7lc9l-55" target="Tcv-U042ql_su6P7lc9l-57" edge="1">
          <mxGeometry relative="1" as="geometry" />
        </mxCell>
        <mxCell id="Tcv-U042ql_su6P7lc9l-61" style="edgeStyle=none;rounded=0;orthogonalLoop=1;jettySize=auto;html=1;exitX=1;exitY=0.5;exitDx=0;exitDy=0;" parent="1" source="Tcv-U042ql_su6P7lc9l-55" target="Tcv-U042ql_su6P7lc9l-58" edge="1">
          <mxGeometry relative="1" as="geometry" />
        </mxCell>
        <mxCell id="Tcv-U042ql_su6P7lc9l-62" style="edgeStyle=none;rounded=0;orthogonalLoop=1;jettySize=auto;html=1;exitX=1;exitY=1;exitDx=0;exitDy=0;entryX=0;entryY=0.4;entryDx=0;entryDy=0;entryPerimeter=0;" parent="1" source="Tcv-U042ql_su6P7lc9l-55" target="Tcv-U042ql_su6P7lc9l-59" edge="1">
          <mxGeometry relative="1" as="geometry" />
        </mxCell>
        <mxCell id="Tcv-U042ql_su6P7lc9l-55" value="设备管理" style="ellipse;whiteSpace=wrap;html=1;" parent="1" vertex="1">
          <mxGeometry x="203" y="780" width="140" height="70" as="geometry" />
        </mxCell>
        <mxCell id="Tcv-U042ql_su6P7lc9l-57" value="设备出厂" style="ellipse;whiteSpace=wrap;html=1;" parent="1" vertex="1">
          <mxGeometry x="373" y="660" width="140" height="70" as="geometry" />
        </mxCell>
        <mxCell id="Tcv-U042ql_su6P7lc9l-58" value="设备状态监控" style="ellipse;whiteSpace=wrap;html=1;" parent="1" vertex="1">
          <mxGeometry x="433" y="770" width="140" height="70" as="geometry" />
        </mxCell>
        <mxCell id="Tcv-U042ql_su6P7lc9l-59" value="实时监控视频" style="ellipse;whiteSpace=wrap;html=1;" parent="1" vertex="1">
          <mxGeometry x="423" y="880" width="140" height="70" as="geometry" />
        </mxCell>
        <mxCell id="Tcv-U042ql_su6P7lc9l-66" value="" style="edgeStyle=none;rounded=0;orthogonalLoop=1;jettySize=auto;html=1;" parent="1" source="Tcv-U042ql_su6P7lc9l-64" target="Tcv-U042ql_su6P7lc9l-65" edge="1">
          <mxGeometry relative="1" as="geometry" />
        </mxCell>
        <mxCell id="Tcv-U042ql_su6P7lc9l-68" value="" style="edgeStyle=none;rounded=0;orthogonalLoop=1;jettySize=auto;html=1;exitX=1;exitY=0.5;exitDx=0;exitDy=0;" parent="1" source="Tcv-U042ql_su6P7lc9l-64" target="Tcv-U042ql_su6P7lc9l-67" edge="1">
          <mxGeometry relative="1" as="geometry">
            <mxPoint x="402.99715236255486" y="1078.7956628561394" as="sourcePoint" />
          </mxGeometry>
        </mxCell>
        <mxCell id="Tcv-U042ql_su6P7lc9l-77" value="" style="edgeStyle=none;rounded=0;orthogonalLoop=1;jettySize=auto;html=1;" parent="1" source="Tcv-U042ql_su6P7lc9l-64" target="Tcv-U042ql_su6P7lc9l-76" edge="1">
          <mxGeometry relative="1" as="geometry" />
        </mxCell>
        <mxCell id="Tcv-U042ql_su6P7lc9l-79" value="" style="edgeStyle=none;rounded=0;orthogonalLoop=1;jettySize=auto;html=1;" parent="1" source="Tcv-U042ql_su6P7lc9l-64" target="Tcv-U042ql_su6P7lc9l-78" edge="1">
          <mxGeometry relative="1" as="geometry" />
        </mxCell>
        <mxCell id="Tcv-U042ql_su6P7lc9l-64" value="业务单管理" style="ellipse;whiteSpace=wrap;html=1;" parent="1" vertex="1">
          <mxGeometry x="190" y="1030" width="140" height="70" as="geometry" />
        </mxCell>
        <mxCell id="Tcv-U042ql_su6P7lc9l-78" value="退款" style="ellipse;whiteSpace=wrap;html=1;" parent="1" vertex="1">
          <mxGeometry x="613" y="1250" width="140" height="70" as="geometry" />
        </mxCell>
        <mxCell id="Tcv-U042ql_su6P7lc9l-76" value="业务单详情" style="ellipse;whiteSpace=wrap;html=1;" parent="1" vertex="1">
          <mxGeometry x="363" y="1220" width="140" height="70" as="geometry" />
        </mxCell>
        <mxCell id="Tcv-U042ql_su6P7lc9l-67" value="照相单" style="ellipse;whiteSpace=wrap;html=1;" parent="1" vertex="1">
          <mxGeometry x="483" y="1089" width="140" height="70" as="geometry" />
        </mxCell>
        <mxCell id="Tcv-U042ql_su6P7lc9l-71" value="" style="edgeStyle=none;rounded=0;orthogonalLoop=1;jettySize=auto;html=1;" parent="1" source="Tcv-U042ql_su6P7lc9l-65" target="Tcv-U042ql_su6P7lc9l-70" edge="1">
          <mxGeometry relative="1" as="geometry" />
        </mxCell>
        <mxCell id="Tcv-U042ql_su6P7lc9l-73" value="" style="edgeStyle=none;rounded=0;orthogonalLoop=1;jettySize=auto;html=1;" parent="1" source="Tcv-U042ql_su6P7lc9l-65" target="Tcv-U042ql_su6P7lc9l-72" edge="1">
          <mxGeometry relative="1" as="geometry" />
        </mxCell>
        <mxCell id="Tcv-U042ql_su6P7lc9l-65" value="体检单" style="ellipse;whiteSpace=wrap;html=1;" parent="1" vertex="1">
          <mxGeometry x="423" y="990" width="140" height="70" as="geometry" />
        </mxCell>
        <mxCell id="Tcv-U042ql_su6P7lc9l-72" value="重新上报" style="ellipse;whiteSpace=wrap;html=1;" parent="1" vertex="1">
          <mxGeometry x="643" y="1060" width="140" height="70" as="geometry" />
        </mxCell>
        <mxCell id="Tcv-U042ql_su6P7lc9l-70" value="审核体检单" style="ellipse;whiteSpace=wrap;html=1;" parent="1" vertex="1">
          <mxGeometry x="653" y="940" width="140" height="70" as="geometry" />
        </mxCell>
        <mxCell id="Tcv-U042ql_su6P7lc9l-85" value="" style="edgeStyle=none;rounded=0;orthogonalLoop=1;jettySize=auto;html=1;" parent="1" source="Tcv-U042ql_su6P7lc9l-82" target="Tcv-U042ql_su6P7lc9l-84" edge="1">
          <mxGeometry relative="1" as="geometry" />
        </mxCell>
        <mxCell id="Tcv-U042ql_su6P7lc9l-87" value="" style="edgeStyle=none;rounded=0;orthogonalLoop=1;jettySize=auto;html=1;" parent="1" source="Tcv-U042ql_su6P7lc9l-82" target="Tcv-U042ql_su6P7lc9l-86" edge="1">
          <mxGeometry relative="1" as="geometry" />
        </mxCell>
        <mxCell id="Tcv-U042ql_su6P7lc9l-82" value="用户管理" style="ellipse;whiteSpace=wrap;html=1;" parent="1" vertex="1">
          <mxGeometry x="183" y="1380" width="140" height="70" as="geometry" />
        </mxCell>
        <mxCell id="Tcv-U042ql_su6P7lc9l-86" value="权限控制" style="ellipse;whiteSpace=wrap;html=1;" parent="1" vertex="1">
          <mxGeometry x="443" y="1320" width="140" height="70" as="geometry" />
        </mxCell>
        <mxCell id="Tcv-U042ql_su6P7lc9l-84" value="角色管理" style="ellipse;whiteSpace=wrap;html=1;" parent="1" vertex="1">
          <mxGeometry x="423" y="1450" width="140" height="70" as="geometry" />
        </mxCell>
        <mxCell id="Tcv-U042ql_su6P7lc9l-90" style="edgeStyle=none;rounded=0;orthogonalLoop=1;jettySize=auto;html=1;exitX=1;exitY=0.5;exitDx=0;exitDy=0;entryX=0;entryY=0.5;entryDx=0;entryDy=0;" parent="1" source="Tcv-U042ql_su6P7lc9l-88" target="Tcv-U042ql_su6P7lc9l-89" edge="1">
          <mxGeometry relative="1" as="geometry" />
        </mxCell>
        <mxCell id="Tcv-U042ql_su6P7lc9l-88" value="商户管理" style="ellipse;whiteSpace=wrap;html=1;" parent="1" vertex="1">
          <mxGeometry x="183" y="1610" width="140" height="70" as="geometry" />
        </mxCell>
        <mxCell id="Tcv-U042ql_su6P7lc9l-89" value="CRUD" style="ellipse;whiteSpace=wrap;html=1;" parent="1" vertex="1">
          <mxGeometry x="423" y="1590" width="140" height="70" as="geometry" />
        </mxCell>
        <mxCell id="Tcv-U042ql_su6P7lc9l-139" value="云服务平台" style="ellipse;shape=cloud;whiteSpace=wrap;html=1;shadow=0;" parent="1" vertex="1">
          <mxGeometry x="550" y="2830" width="120" height="80" as="geometry" />
        </mxCell>
        <mxCell id="Tcv-U042ql_su6P7lc9l-144" style="edgeStyle=none;rounded=0;orthogonalLoop=1;jettySize=auto;html=1;exitX=1;exitY=0.5;exitDx=0;exitDy=0;shadow=0;" parent="1" source="Tcv-U042ql_su6P7lc9l-141" target="Tcv-U042ql_su6P7lc9l-139" edge="1">
          <mxGeometry relative="1" as="geometry">
            <mxPoint x="580" y="2850" as="targetPoint" />
          </mxGeometry>
        </mxCell>
        <mxCell id="Tcv-U042ql_su6P7lc9l-141" value="体检机A" style="rounded=1;whiteSpace=wrap;html=1;shadow=0;" parent="1" vertex="1">
          <mxGeometry x="160" y="2680" width="70" height="110" as="geometry" />
        </mxCell>
        <mxCell id="Tcv-U042ql_su6P7lc9l-145" style="edgeStyle=none;rounded=0;orthogonalLoop=1;jettySize=auto;html=1;exitX=1;exitY=0.5;exitDx=0;exitDy=0;shadow=0;" parent="1" source="Tcv-U042ql_su6P7lc9l-142" target="Tcv-U042ql_su6P7lc9l-139" edge="1">
          <mxGeometry relative="1" as="geometry" />
        </mxCell>
        <mxCell id="Tcv-U042ql_su6P7lc9l-142" value="体检机B" style="rounded=1;whiteSpace=wrap;html=1;shadow=0;" parent="1" vertex="1">
          <mxGeometry x="160" y="2830" width="70" height="110" as="geometry" />
        </mxCell>
        <mxCell id="Tcv-U042ql_su6P7lc9l-146" style="edgeStyle=none;rounded=0;orthogonalLoop=1;jettySize=auto;html=1;exitX=1;exitY=0.5;exitDx=0;exitDy=0;shadow=0;" parent="1" source="Tcv-U042ql_su6P7lc9l-143" target="Tcv-U042ql_su6P7lc9l-139" edge="1">
          <mxGeometry relative="1" as="geometry" />
        </mxCell>
        <mxCell id="Tcv-U042ql_su6P7lc9l-143" value="体检机C" style="rounded=1;whiteSpace=wrap;html=1;shadow=0;" parent="1" vertex="1">
          <mxGeometry x="150" y="3040" width="70" height="110" as="geometry" />
        </mxCell>
        <mxCell id="Tcv-U042ql_su6P7lc9l-150" style="edgeStyle=none;rounded=0;orthogonalLoop=1;jettySize=auto;html=1;exitX=0.5;exitY=0;exitDx=0;exitDy=0;shadow=0;" parent="1" source="Tcv-U042ql_su6P7lc9l-147" target="Tcv-U042ql_su6P7lc9l-139" edge="1">
          <mxGeometry relative="1" as="geometry" />
        </mxCell>
        <mxCell id="Tcv-U042ql_su6P7lc9l-147" value="体检机D" style="rounded=1;whiteSpace=wrap;html=1;shadow=0;" parent="1" vertex="1">
          <mxGeometry x="314" y="3150" width="70" height="110" as="geometry" />
        </mxCell>
        <mxCell id="Tcv-U042ql_su6P7lc9l-152" style="edgeStyle=none;rounded=0;orthogonalLoop=1;jettySize=auto;html=1;exitX=0.5;exitY=0;exitDx=0;exitDy=0;shadow=0;" parent="1" source="Tcv-U042ql_su6P7lc9l-151" target="Tcv-U042ql_su6P7lc9l-139" edge="1">
          <mxGeometry relative="1" as="geometry" />
        </mxCell>
        <mxCell id="Tcv-U042ql_su6P7lc9l-151" value="体检机E" style="rounded=1;whiteSpace=wrap;html=1;shadow=0;" parent="1" vertex="1">
          <mxGeometry x="490" y="3150" width="70" height="110" as="geometry" />
        </mxCell>
        <mxCell id="Tcv-U042ql_su6P7lc9l-154" style="edgeStyle=none;rounded=0;orthogonalLoop=1;jettySize=auto;html=1;entryX=0.667;entryY=1;entryDx=0;entryDy=0;entryPerimeter=0;shadow=0;exitX=0.5;exitY=0;exitDx=0;exitDy=0;" parent="1" source="Tcv-U042ql_su6P7lc9l-153" target="Tcv-U042ql_su6P7lc9l-139" edge="1">
          <mxGeometry relative="1" as="geometry" />
        </mxCell>
        <mxCell id="Tcv-U042ql_su6P7lc9l-153" value="体检机F" style="rounded=1;whiteSpace=wrap;html=1;shadow=0;" parent="1" vertex="1">
          <mxGeometry x="710" y="3150" width="70" height="110" as="geometry" />
        </mxCell>
        <mxCell id="Tcv-U042ql_su6P7lc9l-158" value="代理商A" style="text;html=1;align=center;verticalAlign=middle;resizable=0;points=[];autosize=1;" parent="1" vertex="1">
          <mxGeometry x="343" y="2630" width="60" height="20" as="geometry" />
        </mxCell>
        <mxCell id="Tcv-U042ql_su6P7lc9l-159" value="体检医院A" style="text;html=1;align=center;verticalAlign=middle;resizable=0;points=[];autosize=1;" parent="1" vertex="1">
          <mxGeometry x="175" y="2650" width="70" height="20" as="geometry" />
        </mxCell>
        <mxCell id="Tcv-U042ql_su6P7lc9l-160" value="体检医院B" style="text;html=1;align=center;verticalAlign=middle;resizable=0;points=[];autosize=1;" parent="1" vertex="1">
          <mxGeometry x="410" y="3150" width="70" height="20" as="geometry" />
        </mxCell>
        <mxCell id="Tcv-U042ql_su6P7lc9l-165" value="二级代理商B" style="text;html=1;align=center;verticalAlign=middle;resizable=0;points=[];autosize=1;" parent="1" vertex="1">
          <mxGeometry x="277" y="3115" width="80" height="20" as="geometry" />
        </mxCell>
        <mxCell id="G3Qc2aBbD_7cWfgyPxFC-1" value="用户体检时序图" style="text;html=1;align=center;verticalAlign=middle;resizable=0;points=[];autosize=1;" parent="1" vertex="1">
          <mxGeometry x="53" y="3820" width="100" height="20" as="geometry" />
        </mxCell>
        <mxCell id="G3Qc2aBbD_7cWfgyPxFC-2" value="企业用户体系结构" style="text;html=1;align=center;verticalAlign=middle;resizable=0;points=[];autosize=1;" parent="1" vertex="1">
          <mxGeometry x="46" y="3385" width="110" height="20" as="geometry" />
        </mxCell>
        <mxCell id="G3Qc2aBbD_7cWfgyPxFC-24" value="" style="edgeStyle=none;rounded=0;orthogonalLoop=1;jettySize=auto;html=1;" parent="1" source="G3Qc2aBbD_7cWfgyPxFC-22" target="G3Qc2aBbD_7cWfgyPxFC-23" edge="1">
          <mxGeometry relative="1" as="geometry" />
        </mxCell>
        <mxCell id="G3Qc2aBbD_7cWfgyPxFC-26" value="" style="edgeStyle=none;rounded=0;orthogonalLoop=1;jettySize=auto;html=1;" parent="1" source="G3Qc2aBbD_7cWfgyPxFC-22" target="G3Qc2aBbD_7cWfgyPxFC-25" edge="1">
          <mxGeometry relative="1" as="geometry" />
        </mxCell>
        <mxCell id="G3Qc2aBbD_7cWfgyPxFC-22" value="企业机构" style="html=1;" parent="1" vertex="1">
          <mxGeometry x="100" y="3540" width="110" height="50" as="geometry" />
        </mxCell>
        <mxCell id="G3Qc2aBbD_7cWfgyPxFC-25" value="设备" style="html=1;" parent="1" vertex="1">
          <mxGeometry x="498" y="3540" width="110" height="50" as="geometry" />
        </mxCell>
        <mxCell id="G3Qc2aBbD_7cWfgyPxFC-23" value="用户" style="html=1;" parent="1" vertex="1">
          <mxGeometry x="100" y="3670" width="110" height="50" as="geometry" />
        </mxCell>
        <mxCell id="G3Qc2aBbD_7cWfgyPxFC-30" value="N:N" style="text;html=1;align=center;verticalAlign=middle;resizable=0;points=[];autosize=1;" parent="1" vertex="1">
          <mxGeometry x="344" y="3543" width="40" height="20" as="geometry" />
        </mxCell>
        <mxCell id="G3Qc2aBbD_7cWfgyPxFC-31" value="1:N" style="text;html=1;align=center;verticalAlign=middle;resizable=0;points=[];autosize=1;" parent="1" vertex="1">
          <mxGeometry x="158" y="3620" width="30" height="20" as="geometry" />
        </mxCell>
      </root>
    </mxGraphModel>
  </diagram>
  <diagram id="JJgTmfpuKcpXvpZhieK8" name="数据模型关系图">
    <mxGraphModel dx="1186" dy="-1677" grid="1" gridSize="10" guides="1" tooltips="1" connect="1" arrows="1" fold="1" page="1" pageScale="1" pageWidth="827" pageHeight="1169" math="0" shadow="0">
      <root>
        <mxCell id="floWNichh9cdBPFRpLOs-0" />
        <mxCell id="floWNichh9cdBPFRpLOs-1" parent="floWNichh9cdBPFRpLOs-0" />
        <mxCell id="floWNichh9cdBPFRpLOs-2" value="" style="rounded=0;whiteSpace=wrap;html=1;fillColor=#e3c800;strokeColor=#B09500;fontColor=#ffffff;" vertex="1" parent="floWNichh9cdBPFRpLOs-1">
          <mxGeometry x="7" y="3260" width="207" height="120" as="geometry" />
        </mxCell>
        <mxCell id="floWNichh9cdBPFRpLOs-3" value="" style="rounded=0;whiteSpace=wrap;html=1;fillColor=#f8cecc;strokeColor=#b85450;" vertex="1" parent="floWNichh9cdBPFRpLOs-1">
          <mxGeometry x="444" y="3110" width="170" height="240" as="geometry" />
        </mxCell>
        <mxCell id="floWNichh9cdBPFRpLOs-4" style="edgeStyle=none;rounded=0;orthogonalLoop=1;jettySize=auto;html=1;exitX=1;exitY=0.5;exitDx=0;exitDy=0;shadow=0;" edge="1" parent="floWNichh9cdBPFRpLOs-1" source="floWNichh9cdBPFRpLOs-8" target="floWNichh9cdBPFRpLOs-10">
          <mxGeometry relative="1" as="geometry" />
        </mxCell>
        <mxCell id="floWNichh9cdBPFRpLOs-5" style="edgeStyle=orthogonalEdgeStyle;rounded=0;orthogonalLoop=1;jettySize=auto;html=1;shadow=0;dashed=1;" edge="1" parent="floWNichh9cdBPFRpLOs-1" source="floWNichh9cdBPFRpLOs-8" target="floWNichh9cdBPFRpLOs-13">
          <mxGeometry relative="1" as="geometry">
            <Array as="points">
              <mxPoint x="72" y="3040" />
              <mxPoint x="532" y="3040" />
            </Array>
          </mxGeometry>
        </mxCell>
        <mxCell id="floWNichh9cdBPFRpLOs-6" style="rounded=0;orthogonalLoop=1;jettySize=auto;html=1;shadow=0;dashed=1;entryX=0;entryY=0;entryDx=0;entryDy=0;exitX=1;exitY=1;exitDx=0;exitDy=0;" edge="1" parent="floWNichh9cdBPFRpLOs-1" source="floWNichh9cdBPFRpLOs-8" target="floWNichh9cdBPFRpLOs-15">
          <mxGeometry relative="1" as="geometry">
            <mxPoint x="607" y="3300" as="targetPoint" />
          </mxGeometry>
        </mxCell>
        <mxCell id="floWNichh9cdBPFRpLOs-7" style="edgeStyle=orthogonalEdgeStyle;rounded=0;orthogonalLoop=1;jettySize=auto;html=1;exitX=0.5;exitY=1;exitDx=0;exitDy=0;entryX=0.5;entryY=0;entryDx=0;entryDy=0;shadow=0;" edge="1" parent="floWNichh9cdBPFRpLOs-1" source="floWNichh9cdBPFRpLOs-8" target="floWNichh9cdBPFRpLOs-16">
          <mxGeometry relative="1" as="geometry" />
        </mxCell>
        <mxCell id="floWNichh9cdBPFRpLOs-8" value="企业机构&lt;br&gt;代理商、医院、驾校" style="html=1;shadow=0;" vertex="1" parent="floWNichh9cdBPFRpLOs-1">
          <mxGeometry x="17" y="3140" width="110" height="50" as="geometry" />
        </mxCell>
        <mxCell id="floWNichh9cdBPFRpLOs-9" value="" style="edgeStyle=none;rounded=0;orthogonalLoop=1;jettySize=auto;html=1;shadow=0;" edge="1" parent="floWNichh9cdBPFRpLOs-1" source="floWNichh9cdBPFRpLOs-10" target="floWNichh9cdBPFRpLOs-13">
          <mxGeometry relative="1" as="geometry" />
        </mxCell>
        <mxCell id="floWNichh9cdBPFRpLOs-10" value="设备" style="html=1;shadow=0;fillColor=#fa6800;strokeColor=#C73500;fontColor=#ffffff;" vertex="1" parent="floWNichh9cdBPFRpLOs-1">
          <mxGeometry x="245.5" y="3140" width="110" height="50" as="geometry" />
        </mxCell>
        <mxCell id="floWNichh9cdBPFRpLOs-11" value="" style="edgeStyle=none;rounded=0;orthogonalLoop=1;jettySize=auto;html=1;shadow=0;entryX=0.5;entryY=0;entryDx=0;entryDy=0;" edge="1" parent="floWNichh9cdBPFRpLOs-1" source="floWNichh9cdBPFRpLOs-13" target="floWNichh9cdBPFRpLOs-29">
          <mxGeometry relative="1" as="geometry">
            <mxPoint x="624" y="3240" as="targetPoint" />
          </mxGeometry>
        </mxCell>
        <mxCell id="floWNichh9cdBPFRpLOs-12" style="rounded=0;orthogonalLoop=1;jettySize=auto;html=1;shadow=0;entryX=0;entryY=0.5;entryDx=0;entryDy=0;exitX=1;exitY=0.5;exitDx=0;exitDy=0;" edge="1" parent="floWNichh9cdBPFRpLOs-1" source="floWNichh9cdBPFRpLOs-29" target="floWNichh9cdBPFRpLOs-19">
          <mxGeometry relative="1" as="geometry">
            <mxPoint x="784" y="3390" as="sourcePoint" />
          </mxGeometry>
        </mxCell>
        <mxCell id="floWNichh9cdBPFRpLOs-13" value="体检结果" style="html=1;shadow=0;" vertex="1" parent="floWNichh9cdBPFRpLOs-1">
          <mxGeometry x="474" y="3140" width="110" height="50" as="geometry" />
        </mxCell>
        <mxCell id="floWNichh9cdBPFRpLOs-14" value="" style="edgeStyle=none;rounded=0;orthogonalLoop=1;jettySize=auto;html=1;shadow=0;" edge="1" parent="floWNichh9cdBPFRpLOs-1" source="floWNichh9cdBPFRpLOs-15" target="floWNichh9cdBPFRpLOs-16">
          <mxGeometry relative="1" as="geometry" />
        </mxCell>
        <mxCell id="floWNichh9cdBPFRpLOs-15" value="支付记录" style="html=1;shadow=0;" vertex="1" parent="floWNichh9cdBPFRpLOs-1">
          <mxGeometry x="245.5" y="3282" width="110" height="50" as="geometry" />
        </mxCell>
        <mxCell id="floWNichh9cdBPFRpLOs-16" value="商户" style="html=1;shadow=0;" vertex="1" parent="floWNichh9cdBPFRpLOs-1">
          <mxGeometry x="17" y="3282" width="110" height="50" as="geometry" />
        </mxCell>
        <mxCell id="floWNichh9cdBPFRpLOs-17" style="edgeStyle=orthogonalEdgeStyle;rounded=0;orthogonalLoop=1;jettySize=auto;html=1;shadow=0;" edge="1" parent="floWNichh9cdBPFRpLOs-1" source="floWNichh9cdBPFRpLOs-18" target="floWNichh9cdBPFRpLOs-10">
          <mxGeometry relative="1" as="geometry" />
        </mxCell>
        <mxCell id="floWNichh9cdBPFRpLOs-18" value="体检用户" style="shape=umlActor;verticalLabelPosition=bottom;labelBackgroundColor=#ffffff;verticalAlign=top;html=1;shadow=0;" vertex="1" parent="floWNichh9cdBPFRpLOs-1">
          <mxGeometry x="285" y="2930" width="31" height="60" as="geometry" />
        </mxCell>
        <mxCell id="floWNichh9cdBPFRpLOs-19" value="上报公安网" style="html=1;shadow=0;" vertex="1" parent="floWNichh9cdBPFRpLOs-1">
          <mxGeometry x="709" y="3282" width="111" height="50" as="geometry" />
        </mxCell>
        <mxCell id="floWNichh9cdBPFRpLOs-20" style="edgeStyle=none;rounded=0;orthogonalLoop=1;jettySize=auto;html=1;entryX=0.25;entryY=0;entryDx=0;entryDy=0;shadow=0;exitX=1;exitY=1;exitDx=0;exitDy=0;exitPerimeter=0;" edge="1" parent="floWNichh9cdBPFRpLOs-1" source="floWNichh9cdBPFRpLOs-21" target="floWNichh9cdBPFRpLOs-10">
          <mxGeometry relative="1" as="geometry" />
        </mxCell>
        <mxCell id="floWNichh9cdBPFRpLOs-21" value="公司运维" style="shape=umlActor;verticalLabelPosition=bottom;labelBackgroundColor=#ffffff;verticalAlign=top;html=1;shadow=0;" vertex="1" parent="floWNichh9cdBPFRpLOs-1">
          <mxGeometry x="57" y="2930" width="30" height="60" as="geometry" />
        </mxCell>
        <mxCell id="floWNichh9cdBPFRpLOs-22" style="edgeStyle=none;rounded=0;orthogonalLoop=1;jettySize=auto;html=1;shadow=0;entryX=0.75;entryY=0;entryDx=0;entryDy=0;" edge="1" parent="floWNichh9cdBPFRpLOs-1" source="floWNichh9cdBPFRpLOs-23" target="floWNichh9cdBPFRpLOs-31">
          <mxGeometry relative="1" as="geometry">
            <mxPoint x="624" y="3470" as="targetPoint" />
            <Array as="points" />
          </mxGeometry>
        </mxCell>
        <mxCell id="floWNichh9cdBPFRpLOs-23" value="医生" style="shape=umlActor;verticalLabelPosition=bottom;labelBackgroundColor=#ffffff;verticalAlign=top;html=1;shadow=0;" vertex="1" parent="floWNichh9cdBPFRpLOs-1">
          <mxGeometry x="709" y="3130" width="31" height="60" as="geometry" />
        </mxCell>
        <mxCell id="floWNichh9cdBPFRpLOs-24" value="账单" style="html=1;shadow=0;" vertex="1" parent="floWNichh9cdBPFRpLOs-1">
          <mxGeometry x="87" y="3320" width="110" height="50" as="geometry" />
        </mxCell>
        <mxCell id="floWNichh9cdBPFRpLOs-25" value="多级代理商？" style="text;html=1;align=center;verticalAlign=middle;resizable=0;points=[];autosize=1;" vertex="1" parent="floWNichh9cdBPFRpLOs-1">
          <mxGeometry x="97" y="3120" width="90" height="20" as="geometry" />
        </mxCell>
        <mxCell id="floWNichh9cdBPFRpLOs-26" value="审核体检单" style="text;html=1;align=center;verticalAlign=middle;resizable=0;points=[];autosize=1;" vertex="1" parent="floWNichh9cdBPFRpLOs-1">
          <mxGeometry x="639" y="3210" width="80" height="20" as="geometry" />
        </mxCell>
        <mxCell id="floWNichh9cdBPFRpLOs-27" value="机构用户" style="html=1;shadow=0;" vertex="1" parent="floWNichh9cdBPFRpLOs-1">
          <mxGeometry x="84" y="3180" width="110" height="50" as="geometry" />
        </mxCell>
        <mxCell id="floWNichh9cdBPFRpLOs-28" style="edgeStyle=orthogonalEdgeStyle;rounded=0;orthogonalLoop=1;jettySize=auto;html=1;exitX=0;exitY=0.5;exitDx=0;exitDy=0;entryX=1;entryY=0.5;entryDx=0;entryDy=0;" edge="1" parent="floWNichh9cdBPFRpLOs-1" source="floWNichh9cdBPFRpLOs-29" target="floWNichh9cdBPFRpLOs-15">
          <mxGeometry relative="1" as="geometry" />
        </mxCell>
        <mxCell id="floWNichh9cdBPFRpLOs-29" value="订单" style="html=1;shadow=0;" vertex="1" parent="floWNichh9cdBPFRpLOs-1">
          <mxGeometry x="474" y="3282" width="110" height="50" as="geometry" />
        </mxCell>
        <mxCell id="floWNichh9cdBPFRpLOs-30" value="用户确认缴费项目" style="text;html=1;align=center;verticalAlign=middle;resizable=0;points=[];autosize=1;" vertex="1" parent="floWNichh9cdBPFRpLOs-1">
          <mxGeometry x="477" y="3230" width="110" height="20" as="geometry" />
        </mxCell>
        <mxCell id="floWNichh9cdBPFRpLOs-31" value="体检单" style="html=1;shadow=0;" vertex="1" parent="floWNichh9cdBPFRpLOs-1">
          <mxGeometry x="559" y="3250" width="110" height="50" as="geometry" />
        </mxCell>
        <mxCell id="floWNichh9cdBPFRpLOs-32" value="体检单生成时机？" style="text;html=1;align=center;verticalAlign=middle;resizable=0;points=[];autosize=1;" vertex="1" parent="floWNichh9cdBPFRpLOs-1">
          <mxGeometry x="544" y="3110" width="110" height="20" as="geometry" />
        </mxCell>
        <mxCell id="floWNichh9cdBPFRpLOs-33" value="商户管理" style="text;html=1;align=center;verticalAlign=middle;resizable=0;points=[];autosize=1;" vertex="1" parent="floWNichh9cdBPFRpLOs-1">
          <mxGeometry x="147" y="3265" width="60" height="20" as="geometry" />
        </mxCell>
        <mxCell id="floWNichh9cdBPFRpLOs-34" style="edgeStyle=none;rounded=0;orthogonalLoop=1;jettySize=auto;html=1;exitX=1;exitY=0.5;exitDx=0;exitDy=0;shadow=0;" edge="1" parent="floWNichh9cdBPFRpLOs-1" source="floWNichh9cdBPFRpLOs-37" target="floWNichh9cdBPFRpLOs-39">
          <mxGeometry relative="1" as="geometry" />
        </mxCell>
        <mxCell id="floWNichh9cdBPFRpLOs-35" style="edgeStyle=orthogonalEdgeStyle;rounded=0;orthogonalLoop=1;jettySize=auto;html=1;shadow=0;" edge="1" parent="floWNichh9cdBPFRpLOs-1" source="floWNichh9cdBPFRpLOs-37" target="floWNichh9cdBPFRpLOs-42">
          <mxGeometry relative="1" as="geometry">
            <Array as="points">
              <mxPoint x="72" y="2480" />
              <mxPoint x="532" y="2480" />
            </Array>
          </mxGeometry>
        </mxCell>
        <mxCell id="floWNichh9cdBPFRpLOs-36" style="rounded=0;orthogonalLoop=1;jettySize=auto;html=1;entryX=0;entryY=0;entryDx=0;entryDy=0;exitX=1;exitY=1;exitDx=0;exitDy=0;" edge="1" parent="floWNichh9cdBPFRpLOs-1" source="floWNichh9cdBPFRpLOs-37" target="floWNichh9cdBPFRpLOs-50">
          <mxGeometry relative="1" as="geometry" />
        </mxCell>
        <mxCell id="floWNichh9cdBPFRpLOs-37" value="用户&lt;br&gt;代理商、医院、驾校" style="html=1;shadow=0;fillColor=#fa6800;strokeColor=#C73500;fontColor=#ffffff;" vertex="1" parent="floWNichh9cdBPFRpLOs-1">
          <mxGeometry x="17" y="2580" width="110" height="50" as="geometry" />
        </mxCell>
        <mxCell id="floWNichh9cdBPFRpLOs-38" value="" style="edgeStyle=none;rounded=0;orthogonalLoop=1;jettySize=auto;html=1;shadow=0;" edge="1" parent="floWNichh9cdBPFRpLOs-1" source="floWNichh9cdBPFRpLOs-39" target="floWNichh9cdBPFRpLOs-42">
          <mxGeometry relative="1" as="geometry" />
        </mxCell>
        <mxCell id="floWNichh9cdBPFRpLOs-39" value="设备" style="html=1;shadow=0;" vertex="1" parent="floWNichh9cdBPFRpLOs-1">
          <mxGeometry x="245.5" y="2580" width="110" height="50" as="geometry" />
        </mxCell>
        <mxCell id="floWNichh9cdBPFRpLOs-40" value="" style="edgeStyle=none;rounded=0;orthogonalLoop=1;jettySize=auto;html=1;shadow=0;entryX=0.5;entryY=0;entryDx=0;entryDy=0;" edge="1" parent="floWNichh9cdBPFRpLOs-1" source="floWNichh9cdBPFRpLOs-42" target="floWNichh9cdBPFRpLOs-50">
          <mxGeometry relative="1" as="geometry">
            <mxPoint x="624" y="2680" as="targetPoint" />
          </mxGeometry>
        </mxCell>
        <mxCell id="floWNichh9cdBPFRpLOs-41" style="rounded=0;orthogonalLoop=1;jettySize=auto;html=1;shadow=0;entryX=0;entryY=0.5;entryDx=0;entryDy=0;exitX=1;exitY=0.5;exitDx=0;exitDy=0;" edge="1" parent="floWNichh9cdBPFRpLOs-1" source="floWNichh9cdBPFRpLOs-42" target="floWNichh9cdBPFRpLOs-45">
          <mxGeometry relative="1" as="geometry">
            <mxPoint x="784" y="2830" as="sourcePoint" />
          </mxGeometry>
        </mxCell>
        <mxCell id="floWNichh9cdBPFRpLOs-42" value="照相单、体检单" style="html=1;shadow=0;" vertex="1" parent="floWNichh9cdBPFRpLOs-1">
          <mxGeometry x="474" y="2580" width="110" height="50" as="geometry" />
        </mxCell>
        <mxCell id="floWNichh9cdBPFRpLOs-43" style="edgeStyle=orthogonalEdgeStyle;rounded=0;orthogonalLoop=1;jettySize=auto;html=1;shadow=0;" edge="1" parent="floWNichh9cdBPFRpLOs-1" source="floWNichh9cdBPFRpLOs-44" target="floWNichh9cdBPFRpLOs-39">
          <mxGeometry relative="1" as="geometry" />
        </mxCell>
        <mxCell id="floWNichh9cdBPFRpLOs-44" value="体检用户" style="shape=umlActor;verticalLabelPosition=bottom;labelBackgroundColor=#ffffff;verticalAlign=top;html=1;shadow=0;" vertex="1" parent="floWNichh9cdBPFRpLOs-1">
          <mxGeometry x="285" y="2370" width="31" height="60" as="geometry" />
        </mxCell>
        <mxCell id="floWNichh9cdBPFRpLOs-45" value="上报公安网" style="html=1;shadow=0;" vertex="1" parent="floWNichh9cdBPFRpLOs-1">
          <mxGeometry x="709" y="2580" width="111" height="50" as="geometry" />
        </mxCell>
        <mxCell id="floWNichh9cdBPFRpLOs-46" style="edgeStyle=none;rounded=0;orthogonalLoop=1;jettySize=auto;html=1;shadow=0;entryX=0.75;entryY=0;entryDx=0;entryDy=0;" edge="1" parent="floWNichh9cdBPFRpLOs-1" source="floWNichh9cdBPFRpLOs-47" target="floWNichh9cdBPFRpLOs-42">
          <mxGeometry relative="1" as="geometry">
            <mxPoint x="624" y="2910" as="targetPoint" />
            <Array as="points" />
          </mxGeometry>
        </mxCell>
        <mxCell id="floWNichh9cdBPFRpLOs-47" value="医生" style="shape=umlActor;verticalLabelPosition=bottom;labelBackgroundColor=#ffffff;verticalAlign=top;html=1;shadow=0;" vertex="1" parent="floWNichh9cdBPFRpLOs-1">
          <mxGeometry x="630" y="2410" width="31" height="60" as="geometry" />
        </mxCell>
        <mxCell id="floWNichh9cdBPFRpLOs-48" value="审核体检单" style="text;html=1;align=center;verticalAlign=middle;resizable=0;points=[];autosize=1;" vertex="1" parent="floWNichh9cdBPFRpLOs-1">
          <mxGeometry x="584" y="2520" width="80" height="20" as="geometry" />
        </mxCell>
        <mxCell id="floWNichh9cdBPFRpLOs-49" value="子账户" style="html=1;shadow=0;" vertex="1" parent="floWNichh9cdBPFRpLOs-1">
          <mxGeometry x="87" y="2620" width="110" height="50" as="geometry" />
        </mxCell>
        <mxCell id="floWNichh9cdBPFRpLOs-50" value="订单" style="html=1;shadow=0;" vertex="1" parent="floWNichh9cdBPFRpLOs-1">
          <mxGeometry x="474" y="2722" width="110" height="50" as="geometry" />
        </mxCell>
        <mxCell id="floWNichh9cdBPFRpLOs-51" value="" style="endArrow=none;html=1;" edge="1" parent="floWNichh9cdBPFRpLOs-1">
          <mxGeometry width="50" height="50" relative="1" as="geometry">
            <mxPoint x="7" y="2860" as="sourcePoint" />
            <mxPoint x="820" y="2860" as="targetPoint" />
          </mxGeometry>
        </mxCell>
        <mxCell id="floWNichh9cdBPFRpLOs-52" value="V3.0.0" style="text;html=1;align=center;verticalAlign=middle;resizable=0;points=[];autosize=1;" vertex="1" parent="floWNichh9cdBPFRpLOs-1">
          <mxGeometry x="25" y="2870" width="50" height="20" as="geometry" />
        </mxCell>
        <mxCell id="floWNichh9cdBPFRpLOs-53" value="V2.0.0" style="text;html=1;align=center;verticalAlign=middle;resizable=0;points=[];autosize=1;" vertex="1" parent="floWNichh9cdBPFRpLOs-1">
          <mxGeometry x="30" y="2350" width="50" height="20" as="geometry" />
        </mxCell>
      </root>
    </mxGraphModel>
  </diagram>
  <diagram id="JntxewIZbQWIKkkiLOhw" name="用户体系模型">
    <mxGraphModel dx="1186" dy="661" grid="1" gridSize="10" guides="1" tooltips="1" connect="1" arrows="1" fold="1" page="1" pageScale="1" pageWidth="827" pageHeight="1169" math="0" shadow="0">
      <root>
        <mxCell id="BqHHWL4rI0dHbYfqRM3C-0" />
        <mxCell id="BqHHWL4rI0dHbYfqRM3C-1" parent="BqHHWL4rI0dHbYfqRM3C-0" />
      </root>
    </mxGraphModel>
  </diagram>
</mxfile>
